<?xml version="1.0" encoding="UTF-8" standalone="no"?>
<!-- Generator: Adobe Illustrator 16.0.0, SVG Export Plug-In . SVG Version: 6.00 Build 0)  -->

<svg
   xmlns:dc="http://purl.org/dc/elements/1.1/"
   xmlns:cc="http://creativecommons.org/ns#"
   xmlns:rdf="http://www.w3.org/1999/02/22-rdf-syntax-ns#"
   xmlns:svg="http://www.w3.org/2000/svg"
   xmlns="http://www.w3.org/2000/svg"
   xmlns:xlink="http://www.w3.org/1999/xlink"
   xmlns:sodipodi="http://sodipodi.sourceforge.net/DTD/sodipodi-0.dtd"
   xmlns:inkscape="http://www.inkscape.org/namespaces/inkscape"
   version="1.1"
   id="Capa_1"
   x="0px"
   y="0px"
   width="648.5946"
   height="648.5946"
   viewBox="0 0 648.59461 648.59461"
   xml:space="preserve"
   inkscape:version="0.48.4 r9939"
   sodipodi:docname="usb21.svg"
   inkscape:export-filename="/home/ignacio/Descargas/usb21_b.png"
   inkscape:export-xdpi="90"
   inkscape:export-ydpi="90"><metadata
     id="metadata41"><rdf:RDF><cc:Work
         rdf:about=""><dc:format>image/svg+xml</dc:format><dc:type
           rdf:resource="http://purl.org/dc/dcmitype/StillImage" /><dc:title></dc:title></cc:Work></rdf:RDF></metadata><defs
     id="defs39"><linearGradient
       id="linearGradient3798"><stop
         style="stop-color:#000000;stop-opacity:1;"
         offset="0"
         id="stop3800" /><stop
         style="stop-color:#ffffff;stop-opacity:1;"
         offset="1"
         id="stop3802" /></linearGradient><linearGradient
       inkscape:collect="always"
       xlink:href="#linearGradient3798"
       id="linearGradient3804"
       x1="97.114349"
       y1="340.9765"
       x2="72.389343"
       y2="316.2515"
       gradientUnits="userSpaceOnUse"
       gradientTransform="translate(105.93315,103.89523)" /><linearGradient
       inkscape:collect="always"
       xlink:href="#linearGradient3798"
       id="linearGradient3822"
       x1="194.06847"
       y1="386.24954"
       x2="658.96826"
       y2="-78.650284"
       gradientUnits="userSpaceOnUse"
       gradientTransform="translate(105.93315,103.89523)" /><linearGradient
       inkscape:collect="always"
       xlink:href="#linearGradient3798"
       id="linearGradient3830"
       x1="182.75749"
       y1="340.50049"
       x2="426.04877"
       y2="97.209206"
       gradientUnits="userSpaceOnUse"
       gradientTransform="translate(111.93315,97.895232)" /></defs><sodipodi:namedview
     pagecolor="#ffffff"
     bordercolor="#666666"
     borderopacity="1"
     objecttolerance="10"
     gridtolerance="10"
     guidetolerance="10"
     inkscape:pageopacity="0"
     inkscape:pageshadow="2"
     inkscape:window-width="1486"
     inkscape:window-height="816"
     id="namedview37"
     showgrid="false"
     fit-margin-top="0"
     fit-margin-left="0"
     fit-margin-right="0"
     fit-margin-bottom="0"
     inkscape:zoom="0.38477388"
     inkscape:cx="685.06696"
     inkscape:cy="221.17619"
     inkscape:window-x="0"
     inkscape:window-y="0"
     inkscape:window-maximized="0"
     inkscape:current-layer="Capa_1"
     inkscape:object-paths="false"
     inkscape:snap-smooth-nodes="true"
     inkscape:object-nodes="true" /><path
     style="fill:url(#linearGradient3804);fill-opacity:1;stroke:none"
     d="m 212.56115,400.95723 -106.628,106.627 27.834,27.836 106.63,-106.622 z"
     id="path3795"
     inkscape:connector-curvature="0" /><path
     style="fill:url(#linearGradient3822);fill-opacity:1;stroke:#000000;stroke-width:10;stroke-miterlimit:4;stroke-opacity:1;stroke-dasharray:none"
     d="m 192.01315,380.41023 42.706,-42.709 c -4.728,-7.344 -3.892,-17.225 2.528,-23.649 1.968,-1.967 4.265,-3.374 6.709,-4.293 7.076,-24.559 32.005,-61.123 43.089,-72.211 l 62.411,-62.393 121.099,121.098 -62.403,62.411 c -11.757,11.759 -47.475,34.394 -73.128,40.771 -0.886,2.835 -2.363,5.527 -4.618,7.78 -7.403,7.399 -19.412,7.399 -26.81,0 l -0.877,-0.88 -42.389,42.392 z"
     id="path3793"
     inkscape:connector-curvature="0" /><path
     id="path5"
     style="fill:url(#linearGradient3830);fill-opacity:1;stroke:#000000;stroke-width:10;stroke-miterlimit:4;stroke-opacity:1;stroke-dasharray:none"
     d="m 458.26615,160.29623 13.54,-13.538 -18.047,-18.051 -13.54,13.539 z m 24.411,24.852 18.055,18.046 13.536,-13.538 -18.052,-18.046 z m -12.318,79.683 -89.483,-89.483 75.279,-75.275 89.479,89.486 z"
     inkscape:connector-curvature="0" /><g
     id="g7"
     transform="translate(105.93315,103.89523)" /><g
     id="g9"
     transform="translate(105.93315,103.89523)" /><g
     id="g11"
     transform="translate(105.93315,103.89523)" /><g
     id="g13"
     transform="translate(105.93315,103.89523)" /><g
     id="g15"
     transform="translate(105.93315,103.89523)" /><g
     id="g17"
     transform="translate(105.93315,103.89523)" /><g
     id="g19"
     transform="translate(105.93315,103.89523)" /><g
     id="g21"
     transform="translate(105.93315,103.89523)" /><g
     id="g23"
     transform="translate(105.93315,103.89523)" /><g
     id="g25"
     transform="translate(105.93315,103.89523)" /><g
     id="g27"
     transform="translate(105.93315,103.89523)" /><g
     id="g29"
     transform="translate(105.93315,103.89523)" /><g
     id="g31"
     transform="translate(105.93315,103.89523)" /><g
     id="g33"
     transform="translate(105.93315,103.89523)" /><g
     id="g35"
     transform="translate(105.93315,103.89523)" /><path
     id="path3848"
     style="fill:none;stroke:#821212;stroke-width:60;stroke-linecap:butt;stroke-linejoin:miter;stroke-miterlimit:4;stroke-opacity:1;stroke-dasharray:none"
     d="m 116.19768,116.19768 416.19924,416.19924 m 86.19769,-208.09961 c 0,162.53591 -131.76139,294.2973 -294.2973,294.2973 -162.53592,0 -294.297312,-131.76139 -294.297312,-294.2973 C 29.999998,161.76139 161.76139,30 324.29731,30 c 162.53591,0 294.2973,131.76139 294.2973,294.29731 z"
     inkscape:connector-curvature="0" /></svg>